# MagicaVoxel @ Ephtracy

# group
o 

# material
mtllib Tile_001.mtl
usemtl palette

# normals
vn -1 0 0
vn 1 0 0
vn 0 0 1
vn 0 0 -1
vn 0 -1 0
vn 0 1 0

# texcoords
vt 0.0605469 0.5
vt 0.0878906 0.5
vt 0.0917969 0.5
vt 0.306641 0.5
vt 0.755859 0.5
vt 0.861328 0.5
vt 0.865234 0.5
vt 0.869141 0.5
vt 0.958984 0.5
vt 0.990234 0.5

# verts
v -0.5 0 0.5
v -0.5 0 -0.4
v -0.5 0 -0.5
v -0.5 0.1 -0.4
v -0.5 0.1 -0.5
v -0.5 0.2 0.5
v -0.5 0.2 0.4
v -0.5 0.2 -0.4
v -0.5 0.2 -0.5
v -0.5 0.3 -0.4
v -0.5 0.3 -0.5
v -0.5 0.4 0.1
v -0.5 0.4 -0.1
v -0.5 0.4 -0.4
v -0.5 0.4 -0.5
v -0.5 0.5 -0.4
v -0.5 0.5 -0.5
v -0.5 0.6 0.4
v -0.5 0.6 0.1
v -0.5 0.6 -0.1
v -0.5 0.6 -0.4
v -0.5 1 0.5
v -0.5 1 -0.5
v 0.5 0 0.5
v 0.5 0 -0.5
v 0.5 0.2 0.5
v 0.5 0.2 0.4
v 0.5 0.2 -0.4
v 0.5 0.2 -0.5
v 0.5 0.3 -0.4
v 0.5 0.3 -0.5
v 0.5 0.4 0.1
v 0.5 0.4 0
v 0.5 0.5 -0.4
v 0.5 0.5 -0.5
v 0.5 0.6 0.4
v 0.5 0.6 0.1
v 0.5 0.6 0
v 0.5 0.6 -0.4
v 0.5 1 0.5
v 0.5 1 -0.5
v -0.5 0 0.5
v -0.5 0.2 0.5
v -0.5 1 0.5
v 0.5 0 0.5
v 0.5 0.2 0.5
v 0.5 1 0.5
v -0.5 0 -0.5
v -0.5 0.1 -0.5
v -0.5 0.2 -0.5
v -0.5 0.3 -0.5
v -0.5 0.4 -0.5
v -0.5 0.5 -0.5
v -0.5 1 -0.5
v -0.4 0 -0.5
v -0.4 0.1 -0.5
v -0.4 0.2 -0.5
v -0.4 0.3 -0.5
v -0.4 0.5 -0.5
v -0.4 0.7 -0.5
v -0.3 0 -0.5
v -0.3 0.1 -0.5
v -0.3 0.2 -0.5
v -0.3 0.4 -0.5
v -0.3 0.5 -0.5
v -0.3 0.7 -0.5
v -0.2 0.1 -0.5
v -0.2 0.3 -0.5
v -0.2 0.4 -0.5
v -0.2 0.5 -0.5
v -0.1 0.2 -0.5
v -0.1 0.3 -0.5
v -0.1 0.4 -0.5
v -0.1 0.5 -0.5
v 0.1 0.2 -0.5
v 0.1 0.3 -0.5
v 0.1 0.4 -0.5
v 0.1 0.5 -0.5
v 0.2 0.1 -0.5
v 0.2 0.3 -0.5
v 0.2 0.4 -0.5
v 0.2 0.5 -0.5
v 0.3 0.4 -0.5
v 0.3 0.5 -0.5
v 0.3 0.7 -0.5
v 0.4 0.2 -0.5
v 0.4 0.3 -0.5
v 0.4 0.5 -0.5
v 0.4 0.7 -0.5
v 0.5 0 -0.5
v 0.5 0.2 -0.5
v 0.5 0.3 -0.5
v 0.5 0.5 -0.5
v 0.5 1 -0.5
v -0.5 0 0.5
v 0.5 0 0.5
v -0.5 0 -0.4
v -0.4 0 -0.4
v -0.3 0 -0.4
v -0.5 0 -0.5
v -0.4 0 -0.5
v -0.3 0 -0.5
v 0.5 0 -0.5
v -0.5 1 0.5
v 0.5 1 0.5
v -0.5 1 -0.5
v 0.5 1 -0.5

# faces
f 4/1/1 2/1/1 1/1/1
f 4/8/1 3/8/1 2/8/1
f 5/8/1 3/8/1 4/8/1
f 6/1/1 4/1/1 1/1/1
f 7/1/1 4/1/1 6/1/1
f 8/6/1 5/6/1 4/6/1
f 8/1/1 4/1/1 7/1/1
f 9/6/1 5/6/1 8/6/1
f 10/1/1 8/1/1 7/1/1
f 10/2/1 9/2/1 8/2/1
f 11/2/1 9/2/1 10/2/1
f 12/1/1 10/1/1 7/1/1
f 12/1/1 11/1/1 10/1/1
f 13/1/1 11/1/1 12/1/1
f 14/1/1 11/1/1 13/1/1
f 15/1/1 11/1/1 14/1/1
f 16/1/1 14/1/1 13/1/1
f 16/2/1 15/2/1 14/2/1
f 17/2/1 15/2/1 16/2/1
f 18/10/1 7/10/1 6/10/1
f 18/1/1 12/1/1 7/1/1
f 19/10/1 13/10/1 12/10/1
f 19/1/1 12/1/1 18/1/1
f 20/1/1 16/1/1 13/1/1
f 20/10/1 13/10/1 19/10/1
f 21/10/1 17/10/1 16/10/1
f 21/1/1 16/1/1 20/1/1
f 22/10/1 20/10/1 19/10/1
f 22/10/1 18/10/1 6/10/1
f 22/10/1 21/10/1 20/10/1
f 22/10/1 19/10/1 18/10/1
f 23/10/1 17/10/1 21/10/1
f 23/10/1 21/10/1 22/10/1
f 24/1/2 25/1/2 26/1/2
f 26/1/2 25/1/2 27/1/2
f 27/1/2 25/1/2 28/1/2
f 28/1/2 25/1/2 29/1/2
f 27/1/2 28/1/2 30/1/2
f 28/2/2 29/2/2 30/2/2
f 30/2/2 29/2/2 31/2/2
f 27/1/2 30/1/2 32/1/2
f 30/1/2 31/1/2 32/1/2
f 32/1/2 31/1/2 33/1/2
f 33/1/2 31/1/2 34/1/2
f 34/1/2 31/1/2 35/1/2
f 26/10/2 27/10/2 36/10/2
f 27/1/2 32/1/2 36/1/2
f 32/10/2 33/10/2 37/10/2
f 36/1/2 32/1/2 37/1/2
f 33/1/2 34/1/2 38/1/2
f 37/10/2 33/10/2 38/10/2
f 34/10/2 35/10/2 39/10/2
f 38/1/2 34/1/2 39/1/2
f 37/10/2 38/10/2 40/10/2
f 26/10/2 36/10/2 40/10/2
f 38/10/2 39/10/2 40/10/2
f 36/10/2 37/10/2 40/10/2
f 39/10/2 35/10/2 41/10/2
f 40/10/2 39/10/2 41/10/2
f 45/1/3 43/1/3 42/1/3
f 46/10/3 44/10/3 43/10/3
f 46/1/3 43/1/3 45/1/3
f 47/10/3 44/10/3 46/10/3
f 48/8/4 49/8/4 55/8/4
f 49/6/4 50/6/4 56/6/4
f 55/8/4 49/8/4 56/8/4
f 50/2/4 51/2/4 57/2/4
f 56/6/4 50/6/4 57/6/4
f 51/1/4 52/1/4 58/1/4
f 57/2/4 51/2/4 58/2/4
f 53/10/4 54/10/4 59/10/4
f 52/2/4 53/2/4 59/2/4
f 59/10/4 54/10/4 60/10/4
f 55/6/4 56/6/4 61/6/4
f 56/2/4 57/2/4 62/2/4
f 61/6/4 56/6/4 62/6/4
f 57/1/4 58/1/4 63/1/4
f 62/2/4 57/2/4 63/2/4
f 58/1/4 52/1/4 64/1/4
f 63/1/4 58/1/4 64/1/4
f 52/2/4 59/2/4 64/2/4
f 59/2/4 60/2/4 64/2/4
f 64/2/4 60/2/4 65/2/4
f 60/10/4 54/10/4 66/10/4
f 65/2/4 60/2/4 66/2/4
f 62/1/4 63/1/4 67/1/4
f 61/1/4 62/1/4 67/1/4
f 63/1/4 64/1/4 67/1/4
f 67/1/4 64/1/4 68/1/4
f 64/9/4 65/9/4 69/9/4
f 68/1/4 64/1/4 69/1/4
f 65/1/4 66/1/4 70/1/4
f 69/9/4 65/9/4 70/9/4
f 67/7/4 68/7/4 71/7/4
f 68/1/4 69/1/4 72/1/4
f 71/7/4 68/7/4 72/7/4
f 69/5/4 70/5/4 73/5/4
f 72/1/4 69/1/4 73/1/4
f 70/1/4 66/1/4 74/1/4
f 73/5/4 70/5/4 74/5/4
f 67/7/4 71/7/4 75/7/4
f 71/1/4 72/1/4 75/1/4
f 72/3/4 73/3/4 76/3/4
f 75/1/4 72/1/4 76/1/4
f 73/1/4 74/1/4 77/1/4
f 76/3/4 73/3/4 77/3/4
f 74/1/4 66/1/4 78/1/4
f 77/1/4 74/1/4 78/1/4
f 67/7/4 75/7/4 79/7/4
f 61/1/4 67/1/4 79/1/4
f 75/7/4 76/7/4 79/7/4
f 76/1/4 77/1/4 80/1/4
f 79/7/4 76/7/4 80/7/4
f 77/5/4 78/5/4 81/5/4
f 80/1/4 77/1/4 81/1/4
f 78/1/4 66/1/4 82/1/4
f 81/5/4 78/5/4 82/5/4
f 80/1/4 81/1/4 83/1/4
f 79/1/4 80/1/4 83/1/4
f 81/9/4 82/9/4 83/9/4
f 82/1/4 66/1/4 84/1/4
f 83/9/4 82/9/4 84/9/4
f 66/10/4 54/10/4 85/10/4
f 84/1/4 66/1/4 85/1/4
f 83/1/4 84/1/4 86/1/4
f 79/1/4 83/1/4 86/1/4
f 86/1/4 84/1/4 87/1/4
f 84/2/4 85/2/4 88/2/4
f 87/1/4 84/1/4 88/1/4
f 85/10/4 54/10/4 89/10/4
f 88/2/4 85/2/4 89/2/4
f 61/1/4 79/1/4 90/1/4
f 79/1/4 86/1/4 90/1/4
f 86/2/4 87/2/4 91/2/4
f 90/1/4 86/1/4 91/1/4
f 87/1/4 88/1/4 92/1/4
f 91/2/4 87/2/4 92/2/4
f 88/10/4 89/10/4 93/10/4
f 92/1/4 88/1/4 93/1/4
f 89/10/4 54/10/4 94/10/4
f 93/10/4 89/10/4 94/10/4
f 97/1/5 96/1/5 95/1/5
f 98/1/5 96/1/5 97/1/5
f 99/1/5 96/1/5 98/1/5
f 100/8/5 98/8/5 97/8/5
f 101/6/5 99/6/5 98/6/5
f 101/8/5 98/8/5 100/8/5
f 102/1/5 96/1/5 99/1/5
f 102/6/5 99/6/5 101/6/5
f 103/1/5 96/1/5 102/1/5
f 104/10/6 105/10/6 106/10/6
f 106/10/6 105/10/6 107/10/6
