# MagicaVoxel @ Ephtracy

# group
o 

# material
mtllib Monster.mtl
usemtl palette

# normals
vn -1 0 0
vn 1 0 0
vn 0 0 1
vn 0 0 -1
vn 0 -1 0
vn 0 1 0

# texcoords
vt 0.158203 0.5
vt 0.994141 0.5

# verts
v -0.3 0 0.5
v -0.3 0 -0.3
v -0.3 0.6 0.5
v -0.3 0.6 -0.3
v 0.3 0 0.5
v 0.3 0 -0.3
v 0.3 0.6 0.5
v 0.3 0.6 -0.3
v -0.3 0 0.5
v -0.3 0.6 0.5
v -0.2 0.1 0.5
v -0.2 0.3 0.5
v -0.2 0.4 0.5
v -0.2 0.5 0.5
v -0.1 0.2 0.5
v -0.1 0.3 0.5
v -0.1 0.4 0.5
v -0.1 0.5 0.5
v 0.1 0.2 0.5
v 0.1 0.3 0.5
v 0.1 0.4 0.5
v 0.1 0.5 0.5
v 0.2 0.1 0.5
v 0.2 0.3 0.5
v 0.2 0.4 0.5
v 0.2 0.5 0.5
v 0.3 0 0.5
v 0.3 0.6 0.5
v -0.3 0 -0.3
v -0.3 0.6 -0.3
v 0.3 0 -0.3
v 0.3 0.6 -0.3
v -0.3 0 0.5
v 0.3 0 0.5
v -0.3 0 -0.3
v 0.3 0 -0.3
v -0.3 0.6 0.5
v 0.3 0.6 0.5
v -0.3 0.6 -0.3
v 0.3 0.6 -0.3

# faces
f 3/2/1 2/2/1 1/2/1
f 4/2/1 2/2/1 3/2/1
f 5/2/2 6/2/2 7/2/2
f 7/2/2 6/2/2 8/2/2
f 11/2/3 10/2/3 9/2/3
f 12/2/3 10/2/3 11/2/3
f 13/2/3 10/2/3 12/2/3
f 14/2/3 10/2/3 13/2/3
f 15/1/3 12/1/3 11/1/3
f 16/2/3 13/2/3 12/2/3
f 16/1/3 12/1/3 15/1/3
f 17/1/3 14/1/3 13/1/3
f 17/2/3 13/2/3 16/2/3
f 18/2/3 10/2/3 14/2/3
f 18/1/3 14/1/3 17/1/3
f 19/2/3 17/2/3 16/2/3
f 19/1/3 15/1/3 11/1/3
f 19/2/3 18/2/3 17/2/3
f 19/2/3 16/2/3 15/2/3
f 20/2/3 18/2/3 19/2/3
f 21/2/3 18/2/3 20/2/3
f 22/2/3 10/2/3 18/2/3
f 22/2/3 18/2/3 21/2/3
f 23/2/3 11/2/3 9/2/3
f 23/1/3 19/1/3 11/1/3
f 23/1/3 20/1/3 19/1/3
f 24/2/3 21/2/3 20/2/3
f 24/1/3 20/1/3 23/1/3
f 25/1/3 22/1/3 21/1/3
f 25/2/3 21/2/3 24/2/3
f 26/2/3 10/2/3 22/2/3
f 26/1/3 22/1/3 25/1/3
f 27/2/3 25/2/3 24/2/3
f 27/2/3 23/2/3 9/2/3
f 27/2/3 26/2/3 25/2/3
f 27/2/3 24/2/3 23/2/3
f 28/2/3 10/2/3 26/2/3
f 28/2/3 26/2/3 27/2/3
f 29/2/4 30/2/4 31/2/4
f 31/2/4 30/2/4 32/2/4
f 35/2/5 34/2/5 33/2/5
f 36/2/5 34/2/5 35/2/5
f 37/2/6 38/2/6 39/2/6
f 39/2/6 38/2/6 40/2/6
